PathFileType	4	(X/Y/Z)	1H_nor_slow_left.trc
DataRate	CameraRate	NumFrames	NumMarkers	Units	OrigDataRate	OrigDataStartFrame	OrigNumFrames
250.00	250.00	16	18	mm	250.00	17921	20480
Frame#	Time	c7	r_should	l_should	clavicle	r_upa	r_elb_l	r_elb_m	r_low	r_wri_l	r_wri_m	r_met	l_upa	l_elb_l	l_elb_m	l_low	l_wri_l	l_wri_m	l_met
	X1	Y1	Z1	X2	Y2	Z2	X3	Y3	Z3	X4	Y4	Z4	X5	Y5	Z5	X6	Y6	Z6	X7	Y7	Z7	X8	Y8	Z8	X9	Y9	Z9	X10	Y10	Z10	X11	Y11	Z11	X12	Y12	Z12	X13	Y13	Z13	X14	Y14	Z14	X15	Y15	Z15	X16	Y16	Z16	X17	Y17	Z17	X18	Y18	Z18
17921	71.68000	1206.35583	1428.47681	176.56143	1233.26648	1358.43066	349.91327	1244.20105	1371.25867	9.07754	1320.21960	1291.50562	187.04662	1222.77258	1153.33337	423.47083	1211.82507	1070.86633	448.98102	1149.14893	1037.92944	382.80191	1251.39099	948.04218	438.60269	1297.93005	837.11346	416.92700	1226.67065	820.54480	440.10883	1314.31995	769.29102	454.97525	1289.59619	1169.63452	-60.97668	nan	nan	nan	1257.84692	1058.96338	-7.30647	1371.80127	1122.50195	3.22316	1389.02234	1176.86890	104.37083	1393.14929	1107.54541	132.43279	1457.23022	1193.55688	159.47307
17922	71.68400	1206.41052	1428.47693	176.63980	1232.54175	1358.97180	349.73792	1244.24365	1371.27539	9.15064	1320.24939	1291.49426	187.10440	1222.81482	1153.29675	423.52502	1211.86816	1070.82458	449.01407	1149.19653	1037.90454	382.83859	1251.42590	948.01404	438.64209	1297.96680	837.08606	416.97577	1226.70520	820.51501	440.14343	1314.35437	769.26215	455.00769	1289.62964	1169.60999	-60.93035	nan	nan	nan	1257.77161	1058.97375	-7.42394	1371.80237	1122.28992	3.27070	1389.10767	1176.42615	104.54483	1393.12793	1107.01550	132.45419	1457.34058	1192.91589	159.68323
17923	71.68800	1206.46423	1428.47852	176.71361	1232.39465	1359.08618	349.75027	1244.29041	1371.29163	9.21295	1320.28479	1291.48743	187.16327	1222.85608	1153.25745	423.56949	1211.90759	1070.80334	449.05890	1149.24011	1037.87537	382.87921	1251.45447	947.98566	438.67804	1297.99487	837.05737	417.00458	1226.74097	820.48419	440.16284	1314.39160	769.23370	455.04010	1289.66296	1169.58435	-60.88278	nan	nan	nan	1257.71350	1058.96460	-7.54243	1371.82397	1122.06641	3.31105	1389.20129	1175.99109	104.71938	1393.11462	1106.49084	132.50679	1457.46021	1192.28943	159.88704
17924	71.69200	1206.51697	1428.48181	176.78513	1232.73108	1358.84473	349.91382	1244.33923	1371.30774	9.27928	1320.32007	1291.47693	187.22234	1222.89612	1153.22778	423.61536	1211.94202	1070.77905	449.10223	1149.28430	1037.84412	382.92889	1251.48315	947.95966	438.71271	1298.02246	837.02637	417.03223	1226.77246	820.45233	440.18008	1314.42664	769.20325	455.07062	1289.69055	1169.55945	-60.84115	nan	nan	nan	1257.64648	1058.95081	-7.67271	1371.84241	1121.83679	3.34368	1389.30164	1175.53577	104.90913	1393.15674	1105.97888	132.55585	1457.59167	1191.63611	160.09549
17925	71.69600	1206.56543	1428.48352	176.85959	1233.18628	1358.51501	350.11884	1244.39453	1371.32776	9.34456	1320.34949	1291.46228	187.28256	1222.93604	1153.19861	423.67194	1211.40955	1071.33740	449.09143	1149.32654	1037.81580	382.97629	1251.50940	947.92358	438.74774	1298.05920	836.99347	417.07401	1226.80237	820.41565	440.20721	1314.46106	769.17670	455.10208	1290.16663	1169.00195	-60.41125	nan	nan	nan	1257.57153	1058.93921	-7.78926	1371.87964	1121.60303	3.40528	1389.40271	1175.06812	105.11555	1393.18237	1105.45728	132.56569	1457.71643	1190.99854	160.28667
17926	71.70000	1206.61414	1428.47876	176.92926	1232.99304	1358.66968	350.11523	1244.45190	1371.34094	9.41887	1320.37732	1291.44592	187.34473	1222.97925	1153.16870	423.72098	1210.17859	1072.65222	449.01483	1149.36707	1037.79077	383.02289	1251.53174	947.89185	438.78128	1298.08875	836.96576	417.10214	1226.83887	820.38397	440.24524	1314.49426	769.15179	455.13666	1291.21338	1167.78442	-59.50152	nan	nan	nan	1257.47375	1058.94092	-7.92011	1371.92419	1121.34656	3.47712	1389.48486	1174.62134	105.28475	1393.19202	1104.92822	132.55870	1457.84106	1190.34949	160.47939
17927	71.70400	1206.66333	1428.47449	177.00117	1233.65430	1358.19165	350.38208	1244.51160	1371.34961	9.49135	1320.40076	1291.42700	187.41376	1223.01599	1153.14319	423.77634	1210.45923	1072.36487	449.08417	1149.40002	1037.76917	383.07321	1251.55371	947.86792	438.82788	1298.12231	836.93445	417.13345	1226.87109	820.35736	440.28607	1314.52832	769.12854	455.17188	1291.48889	1167.47424	-59.25952	nan	nan	nan	1257.38220	1058.95471	-8.05888	1371.92603	1121.09912	3.51555	1389.57336	1174.17725	105.44390	1393.16333	1104.36694	132.53882	1457.97766	1189.69531	160.66740
17928	71.70800	1206.70984	1428.47058	177.06514	1233.84766	1358.06104	350.49832	1244.56689	1371.34314	9.57469	1320.42310	1291.41309	187.47777	1223.05151	1153.11963	423.83636	1211.67188	1071.07825	449.24359	1149.42712	1037.75403	383.12686	1251.57593	947.84662	438.88358	1298.15100	836.91467	417.18219	1226.89880	820.32428	440.32159	1314.55811	769.10529	455.20483	1291.56897	1167.38818	-59.18403	nan	nan	nan	1257.29675	1058.96167	-8.18239	1371.90637	1120.83240	3.56471	1389.67773	1173.71008	105.61124	1393.16589	1103.82605	132.53430	1458.11462	1189.02991	160.85623
17929	71.71200	1206.75940	1428.46423	177.12949	1233.58813	1358.26062	350.46387	1244.62976	1371.33301	9.66269	1320.45337	1291.39636	187.54640	1223.08447	1153.09863	423.89374	1211.44434	1071.34436	449.28018	1149.46033	1037.74036	383.17554	1251.60474	947.81793	438.93640	1298.18079	836.90240	417.23148	1226.93176	820.30182	440.36041	1314.59131	769.08331	455.23676	1291.60425	1167.36450	-59.14842	nan	nan	nan	1257.19226	1058.96155	-8.29928	1371.90320	1120.57361	3.60403	1389.78284	1173.22156	105.77324	1393.20325	1103.32446	132.54051	1458.25171	1188.35828	161.04129
17930	71.71600	1206.80981	1428.45923	177.19861	1232.87415	1358.79761	350.28540	1244.69373	1371.31824	9.74822	1320.48364	1291.37610	187.61198	1223.12073	1153.07874	423.94824	1210.29443	1072.58374	449.21219	1149.49536	1037.72290	383.22440	1251.64294	947.78943	438.98642	1298.20996	836.87726	417.27560	1226.96851	820.28772	440.40329	1314.62927	769.06207	455.26596	1291.62390	1167.35901	-59.13543	nan	nan	nan	1257.09070	1058.97192	-8.41713	1371.90173	1120.28516	3.65202	1389.89502	1172.74597	105.94096	1393.23499	1102.79675	132.53020	1458.39282	1187.69434	161.20613
17931	71.72000	1206.86096	1428.45740	177.25264	1232.71497	1358.92273	350.28436	1244.76904	1371.31616	9.81635	1320.50989	1291.36047	187.67621	1223.15820	1153.06067	423.99521	1210.69202	1072.45984	449.32413	1149.52734	1037.70056	383.27484	1251.68433	947.77380	439.02905	1298.25073	836.86700	417.31442	1227.00171	820.26941	440.43881	1314.66467	769.04309	455.29861	1291.63855	1167.35706	-59.12685	nan	nan	nan	1257.00171	1058.97571	-8.53816	1371.90332	1119.98560	3.68133	1389.99414	1172.28784	106.10343	1393.25684	1102.22095	132.51152	1458.54834	1187.02600	161.37399
17932	71.72400	1206.91199	1428.45874	177.30838	1232.69727	1358.94385	350.33286	1244.83948	1371.30627	9.89756	1320.54114	1291.35010	187.74554	1223.19629	1153.04163	424.04355	1211.46960	1071.99475	449.48083	1149.22974	1037.98108	383.01898	1251.71741	947.75177	439.05957	1298.29163	836.85040	417.34558	1227.03223	820.26111	440.47958	1314.70398	769.02197	455.32996	1291.64978	1167.36536	-59.12586	nan	nan	nan	1254.89392	1059.31824	-8.33982	1371.92346	1119.70959	3.72137	1390.10132	1171.82288	106.26945	1393.30481	1101.66309	132.50206	1458.70459	1186.34949	161.53012
17933	71.72800	1206.95923	1428.46069	177.36758	1232.71277	1358.93652	350.39120	1244.92712	1371.30835	9.95538	1320.56641	1291.33130	187.81218	1223.23022	1153.01880	424.09619	1210.38403	1072.69666	449.36682	1148.84851	1038.33105	382.68292	1251.75220	947.73016	439.10425	1298.32690	836.83032	417.38849	1227.07153	820.24481	440.52722	1314.74731	769.00140	455.36493	1291.66028	1167.37109	-59.12356	nan	nan	nan	1252.30859	1059.72327	-8.04443	1371.94299	1119.44885	3.76135	1390.22644	1171.33325	106.41916	1393.38586	1101.15857	132.50642	1458.85852	1185.66565	161.68854
17934	71.73200	1207.00598	1428.46375	177.42758	1232.73181	1358.91870	350.45020	1245.02686	1371.31775	10.00145	1320.58435	1291.30713	187.87791	1223.26086	1152.99475	424.14462	1210.78247	1072.44519	449.46875	1149.42737	1037.80310	383.26581	1251.77917	947.70642	439.15176	1298.35278	836.80475	417.44144	1227.11304	820.23523	440.57333	1314.78857	768.98456	455.40378	1291.66528	1167.37317	-59.12136	nan	nan	nan	1255.69678	1059.15527	-8.66420	1371.93567	1119.16663	3.81078	1390.35291	1170.83350	106.57146	1393.41589	1100.61035	132.50871	1459.01599	1184.99243	161.85994
17935	71.73600	1207.05261	1428.46423	177.49055	1232.75330	1358.89587	350.51138	1245.12256	1371.32556	10.05783	1320.60571	1291.27966	187.94366	1223.28601	1152.97852	424.19858	1211.54919	1071.95300	449.63330	1149.58850	1037.65112	383.45093	1251.80737	947.68951	439.20181	1298.38757	836.78351	417.49274	1227.15112	820.21033	440.61331	1314.82983	768.96521	455.44620	1291.66760	1167.38245	-59.11992	nan	nan	nan	1254.47925	1059.32825	-8.56921	1371.93359	1118.90784	3.84522	1390.47571	1170.33655	106.74815	1393.44885	1100.00977	132.47224	1459.18298	1184.29565	162.02777
17936	71.74000	1207.09875	1428.46252	177.55553	1232.77258	1358.87561	350.57605	1245.22522	1371.34338	10.10605	1320.62769	1291.26086	188.00941	1223.31152	1152.96008	424.25580	1210.45544	1072.64355	449.53690	1149.31628	1037.89038	383.23148	1251.83435	947.67108	439.25427	1298.42590	836.77496	417.55801	1227.18970	820.18756	440.66339	1314.86877	768.94763	455.49500	1291.66846	1167.39551	-59.12363	nan	nan	nan	1250.06433	1060.01538	-7.97025	1371.93799	1118.67078	3.86498	1390.58057	1169.86951	106.89796	1393.52417	1099.44897	132.45473	1459.35254	1183.59424	162.18588
